<svg xmlns="http://www.w3.org/2000/svg" viewBox="0 0 200 200">
  <!-- Background Circle -->
  <circle cx="100" cy="100" r="95" fill="#f8c471" stroke="#e67e22" stroke-width="4" />

  <!-- Outer Petals -->
  <path d="M100 20 Q110 60 140 80 Q100 60 60 80 Q90 60 100 20" fill="#e74c3c" stroke="#c0392b" stroke-width="2" />
  <path d="M100 180 Q90 140 60 120 Q100 140 140 120 Q110 140 100 180" fill="#e74c3c" stroke="#c0392b" stroke-width="2" />

  <!-- Inner Petals using Lines and Circles -->
  <circle cx="100" cy="70" r="10" fill="#f1c40f" stroke="#d35400" stroke-width="2" />
  <line x1="90" y1="70" x2="70" y2="100" stroke="#f1c40f" stroke-width="2" />
  <line x1="110" y1="70" x2="130" y2="100" stroke="#f1c40f" stroke-width="2" />

  <circle cx="100" cy="130" r="10" fill="#f1c40f" stroke="#d35400" stroke-width="2" />
  <line x1="90" y1="130" x2="70" y2="100" stroke="#f1c40f" stroke-width="2" />
  <line x1="110" y1="130" x2="130" y2="100" stroke="#f1c40f" stroke-width="2" />

  <!-- Decorative Rays -->
  <g>
    <line x1="100" y1="10" x2="100" y2="30" stroke="#e67e22" stroke-width="2" />
    <line x1="100" y1="190" x2="100" y2="170" stroke="#e67e22" stroke-width="2" />
    <line x1="10" y1="100" x2="30" y2="100" stroke="#e67e22" stroke-width="2" />
    <line x1="190" y1="100" x2="170" y2="100" stroke="#e67e22" stroke-width="2" />
    <line x1="30" y1="30" x2="50" y2="50" stroke="#e67e22" stroke-width="2" />
    <line x1="170" y1="30" x2="150" y2="50" stroke="#e67e22" stroke-width="2" />
    <line x1="30" y1="170" x2="50" y2="150" stroke="#e67e22" stroke-width="2" />
    <line x1="170" y1="170" x2="150" y2="150" stroke="#e67e22" stroke-width="2" />
  </g>
</svg>
