<svg xmlns="http://www.w3.org/2000/svg" viewBox="0 0 800 800">
  <defs>
    <linearGradient id="skyGradient" x1="0" y1="0" x2="0" y2="1">
      <stop offset="0%" stop-color="#FFA07A"/>
      <stop offset="100%" stop-color="#FFE4B5"/>
    </linearGradient>
    <filter id="glow">
      <feGaussianBlur stdDeviation="4" result="glow"/>
      <feMerge>
        <feMergeNode in="glow"/>
        <feMergeNode in="SourceGraphic"/>
      </feMerge>
    </filter>
  </defs>

  <!-- Background -->
  <rect width="800" height="800" fill="url(#skyGradient)"/>

  <!-- Decorative Grain Pattern -->
  <g opacity="0.1" fill="#8B4513">
    <rect x="20" y="20" width="760" height="760" rx="15"/>
  </g>

  <!-- Main Circle -->
  <circle cx="400" cy="400" r="300" fill="none" stroke="#c87031" stroke-width="2"/>

  <!-- Central Symbol - Wheat/Rice stalks representing nourishment -->
  <g transform="translate(400,400)" stroke="#8B4513" fill="none">
    <path d="M0,-100 C20,-80 20,-60 0,-40 C-20,-60 -20,-80 0,-100" stroke-width="2"/>
    <path d="M0,-90 C15,-70 15,-50 0,-30 C-15,-50 -15,-70 0,-90" stroke-width="2"/>
    <path d="M0,-80 C10,-60 10,-40 0,-20 C-10,-40 -10,-60 0,-80" stroke-width="2"/>
    <!-- Mirrored bottom -->
    <path d="M0,100 C20,80 20,60 0,40 C-20,60 -20,80 0,100" stroke-width="2"/>
    <path d="M0,90 C15,70 15,50 0,30 C-15,50 -15,70 0,90" stroke-width="2"/>
    <path d="M0,80 C10,60 10,40 0,20 C-10,40 -10,60 0,80" stroke-width="2"/>
  </g>

  <!-- Title -->
  <g text-anchor="middle" fill="#8B4513">
    <text x="400" y="150" font-size="40" font-family="Arial, sans-serif" font-weight="bold">
      First Step: Annam
    </text>
    <text x="400" y="200" font-size="30" font-family="Arial, sans-serif">
      The Vow of Nourishment
    </text>
  </g>

  <!-- Main Text -->
  <g text-anchor="middle" fill="#8B4513">
    <text x="400" y="650" font-size="24" font-family="Arial, sans-serif">
      "Together we shall provide and share"
    </text>
    <text x="400" y="690" font-size="20" font-family="Arial, sans-serif">
      The promise to nourish each other,
    </text>
    <text x="400" y="720" font-size="20" font-family="Arial, sans-serif">
      physically, emotionally, and spiritually
    </text>
  </g>

  <!-- Social Media Handle -->
  <text x="400" y="780" font-size="16" font-family="Arial, sans-serif" text-anchor="middle" fill="#8B4513">
    #HinduMarriageVows #Saptapadi
  </text>
</svg>