<svg xmlns="http://www.w3.org/2000/svg" viewBox="0 0 800 800">
  <defs>
    <linearGradient id="skyGradient7" x1="0" y1="0" x2="0" y2="1">
      <stop offset="0%" stop-color="#9370DB"/>
      <stop offset="100%" stop-color="#E6E6FA"/>
    </linearGradient>
    <filter id="glow7">
      <feGaussianBlur stdDeviation="4" result="glow"/>
      <feMerge>
        <feMergeNode in="glow"/>
        <feMergeNode in="SourceGraphic"/>
      </feMerge>
    </filter>
  </defs>

  <!-- Background -->
  <rect width="800" height="800" fill="url(#skyGradient7)"/>

  <!-- Decorative Pattern -->
  <g opacity="0.1" fill="#8B4513">
    <rect x="20" y="20" width="760" height="760" rx="15"/>
  </g>

  <!-- Main Circle -->
  <circle cx="400" cy="400" r="300" fill="none" stroke="#ae6632" stroke-width="2"/>

  <!-- Central Symbol - Seven Steps Unity Design -->
  <g transform="translate(400,400)" fill="none" stroke="#8B4513">
    <!-- Seven Concentric Circles representing the seven steps -->
    <g stroke-width="0.5" opacity="0.3">
      <circle r="140"/>
      <circle r="120"/>
      <circle r="100"/>
      <circle r="80"/>
      <circle r="60"/>
      <circle r="40"/>
      <circle r="20"/>
    </g>

    <!-- Infinity Symbol / Eternal Knot -->
    <path d="M-60,0 C-60,-40 -30,-40 0,-40 C30,-40 60,-40 60,0 C60,40 30,40 0,40 C-30,40 -60,40 -60,0" 
          stroke-width="3"/>

    <!-- Seven Steps Path -->
    <path d="M-120,60 L-80,60 L-40,60 L0,60 L40,60 L80,60 L120,60" 
          stroke-width="3"
          stroke-dasharray="1 7"/>

    <!-- Decorative Elements representing each vow -->
    <g stroke-width="1.5">
      <!-- Nourishment (grain) -->
      <path d="M-100,-20 C-90,-30 -80,-30 -70,-20" />
      <!-- Strength (mountain) -->
      <path d="M-50,-20 L-35,-40 L-20,-20" />
      <!-- Prosperity (coin) -->
      <circle cx="0" cy="-30" r="10" />
      <!-- Happiness (flower) -->
      <path d="M20,-20 C30,-30 40,-30 50,-20 C40,-10 30,-10 20,-20" />
      <!-- Family (tree) -->
      <path d="M70,-40 L70,-20 M60,-30 L80,-30" />
      <!-- Harmony (waves) -->
      <path d="M90,-25 Q100,-35 110,-25 Q120,-15 130,-25" />
    </g>

    <!-- Unity Symbols -->
    <g transform="translate(0,-80)" stroke-width="2">
      <circle r="25"/>
      <circle r="20"/>
      <path d="M-25,0 L25,0 M0,-25 L0,25"/>
    </g>
  </g>

  <!-- Title -->
  <g text-anchor="middle" fill="#8B4513">
    <text x="400" y="150" font-size="40" font-family="Arial, sans-serif" font-weight="bold">
      Seventh Step: Saptapad
    </text>
    <text x="400" y="200" font-size="30" font-family="Arial, sans-serif">
      The Vow of Unity
    </text>
  </g>

  <!-- Main Text -->
  <g text-anchor="middle" fill="#8B4513">
    <text x="400" y="650" font-size="24" font-family="Arial, sans-serif">
      "We are now one, forever united"
    </text>
    <text x="400" y="690" font-size="20" font-family="Arial, sans-serif">
      Through seven steps we have become partners,
    </text>
    <text x="400" y="720" font-size="20" font-family="Arial, sans-serif">
      bound eternally in friendship and love
    </text>
  </g>

  <!-- Social Media Handle -->
  <text x="400" y="780" font-size="16" font-family="Arial, sans-serif" text-anchor="middle" fill="#8B4513">
    #HinduMarriageVows #Saptapadi #FinalStep
  </text>
</svg>