<svg xmlns="http://www.w3.org/2000/svg" viewBox="0 0 800 600" preserveAspectRatio="xMidYMid meet">
  <!-- Background Gradient (Sunrise to Sunset) -->
  <defs>
    <linearGradient id="sunriseToSunset" x1="0" y1="0" x2="0" y2="1">
      <stop offset="0%" stop-color="#FFDD70" /> <!-- Sunrise yellow -->
      <stop offset="50%" stop-color="#FFA07A" /> <!-- Midday orange -->
      <stop offset="100%" stop-color="#1E90FF" /> <!-- Sunset blue -->
    </linearGradient>
    <filter id="glow" x="-50%" y="-50%" width="200%" height="200%">
      <feGaussianBlur stdDeviation="6" result="blur" />
      <feMerge>
        <feMergeNode in="blur" />
        <feMergeNode in="SourceGraphic" />
      </feMerge>
    </filter>
  </defs>
  <rect width="100%" height="100%" fill="url(#sunriseToSunset)" />

  <!-- Circular Sun at Sunrise -->
  <circle cx="150" cy="100" r="50" fill="#FFD700" />
  
  <!-- Small Lines for Depth -->
  <g stroke="#FFA500" stroke-width="1">
    <line x1="80" y1="100" x2="120" y2="100" />
    <line x1="180" y1="100" x2="220" y2="100" />
    <line x1="150" y1="50" x2="150" y2="90" />
    <line x1="150" y1="110" x2="150" y2="140" />
  </g>

  <!-- People in STEM (Inclusive Figures) -->
  <g transform="translate(0, -150)">
    <!-- Person 1 -->
    <circle cx="400" cy="400" r="15" fill="#6A5ACD" />
    <line x1="400" y1="415" x2="400" y2="470" stroke="#6A5ACD" stroke-width="3" />
    <line x1="385" y1="450" x2="400" y2="430" stroke="#6A5ACD" stroke-width="3" />
    <line x1="415" y1="450" x2="400" y2="430" stroke="#6A5ACD" stroke-width="3" />

    <!-- Person 2 -->
    <circle cx="500" cy="400" r="15" fill="#FF6347" />
    <line x1="500" y1="415" x2="500" y2="470" stroke="#FF6347" stroke-width="3" />
    <line x1="485" y1="450" x2="500" y2="430" stroke="#FF6347" stroke-width="3" />
    <line x1="515" y1="450" x2="500" y2="430" stroke="#FF6347" stroke-width="3" />
  </g>

  <!-- Symbolic Tech (Gear) -->
  <circle cx="650" cy="100" r="30" fill="none" stroke="#FFFFFF" stroke-width="3" />
  <line x1="650" y1="80" x2="650" y2="60" stroke="#FFFFFF" stroke-width="3" />
  <line x1="650" y1="120" x2="650" y2="140" stroke="#FFFFFF" stroke-width="3" />
  <line x1="620" y1="100" x2="600" y2="100" stroke="#FFFFFF" stroke-width="3" />
  <line x1="680" y1="100" x2="700" y2="100" stroke="#FFFFFF" stroke-width="3" />

  <!-- Ground Lines for Depth -->
  <g stroke="#FFFFFF" stroke-width="0.5">
    <g transform="translate(0, -90)">
      <line x1="0" y1="450" x2="100%" y2="450" />
      <line x1="0" y1="470" x2="100%" y2="470" />
      <line x1="0" y1="490" x2="100%" y2="490" />
    </g>
  </g>

  <!-- Alphabeta Logo -->
  <g transform="translate(400, 50)" text-anchor="middle" filter="url(#glow)">
    <text x="0" y="15" font-family="Arial" font-size="30" fill="#FF6347" font-weight="bold">αβ</text>
  </g>

  <!-- Story Introduction -->
  <g transform="translate(100, 450)">
    <text x="0" y="0" font-family="Arial, sans-serif" font-size="22" fill="#FFFFFF">
      Once upon a sunrise, two curious letters, Alpha (α) and Beta (β),
    </text>
    <text x="0" y="30" font-family="Arial, sans-serif" font-size="22" fill="#FFFFFF">
      embarked on a journey to teach the world through stories.
    </text>
    <text x="0" y="80" font-family="Arial, sans-serif" font-size="18" fill="#FFA07A">
      With Alpha's wisdom and Beta's curiosity, they invite you to explore
    </text>
    <text x="0" y="110" font-family="Arial, sans-serif" font-size="18" fill="#FFA07A">
      technology, learning, and creativity in a vibrant world of discovery.
    </text>
  </g>
</svg>
