<svg xmlns="http://www.w3.org/2000/svg" viewBox="0 0 800 600" preserveAspectRatio="xMidYMid meet">
  <!-- Background Gradient (Afternoon to Sunset) -->
  <defs>
    <linearGradient id="afternoonToSunset2" x1="0" y1="0" x2="0" y2="1">
      <stop offset="0%" stop-color="#FF7F50" />  <!-- Vibrant orange -->
      <stop offset="50%" stop-color="#FF6347" /> <!-- Sunset red -->
      <stop offset="100%" stop-color="#1E90FF" /> <!-- Evening blue -->
    </linearGradient>

    <filter id="glowSlide4" x="-50%" y="-50%" width="200%" height="200%">
      <feGaussianBlur stdDeviation="4" result="blur" />
      <feMerge>
        <feMergeNode in="blur" />
        <feMergeNode in="SourceGraphic" />
      </feMerge>
    </filter>
  </defs>

  <rect width="100%" height="100%" fill="url(#afternoonToSunset2)" />

  <!-- Sunset sun, lower in the sky -->
  <circle cx="600" cy="100" r="40" fill="#FFD700" />

  <!-- People in STEM: working together around a shared "light bulb" idea -->
  <g transform="translate(0, -100)">
    <!-- Idea bulb: a small circle + lines for rays -->
    <g>
      <circle cx="400" cy="360" r="20" fill="#FFFF00" stroke="#FFD700" stroke-width="2" />
      <line x1="400" y1="340" x2="400" y2="320" stroke="#FFD700" stroke-width="2" />
      <line x1="400" y1="380" x2="400" y2="400" stroke="#FFD700" stroke-width="2" />
      <line x1="380" y1="360" x2="360" y2="360" stroke="#FFD700" stroke-width="2" />
      <line x1="420" y1="360" x2="440" y2="360" stroke="#FFD700" stroke-width="2" />
      <line x1="388" y1="342" x2="374" y2="328" stroke="#FFD700" stroke-width="2" />
      <line x1="412" y1="342" x2="426" y2="328" stroke="#FFD700" stroke-width="2" />
      <line x1="388" y1="378" x2="374" y2="392" stroke="#FFD700" stroke-width="2" />
      <line x1="412" y1="378" x2="426" y2="392" stroke="#FFD700" stroke-width="2" />
    </g>

    <!-- Person 1, leaning in -->
    <circle cx="370" cy="420" r="15" fill="#6A5ACD" />
    <line x1="370" y1="435" x2="370" y2="480" stroke="#6A5ACD" stroke-width="3" />
    <line x1="355" y1="460" x2="370" y2="440" stroke="#6A5ACD" stroke-width="3" />
    <line x1="385" y1="460" x2="370" y2="440" stroke="#6A5ACD" stroke-width="3" />

    <!-- Person 2, leaning in -->
    <circle cx="430" cy="420" r="15" fill="#FF6347" />
    <line x1="430" y1="435" x2="430" y2="480" stroke="#FF6347" stroke-width="3" />
    <line x1="415" y1="460" x2="430" y2="440" stroke="#FF6347" stroke-width="3" />
    <line x1="445" y1="460" x2="430" y2="440" stroke="#FF6347" stroke-width="3" />
  </g>

  <!-- Gear icon: slightly rotated again to symbolize ongoing progress -->
  <g transform="translate(650, 80) rotate(30)">
    <circle cx="0" cy="0" r="30" fill="none" stroke="#FFFFFF" stroke-width="3" />
    <line x1="0" y1="-20" x2="0" y2="-40" stroke="#FFFFFF" stroke-width="3" />
    <line x1="0" y1="20" x2="0" y2="40" stroke="#FFFFFF" stroke-width="3" />
    <line x1="-30" y1="0" x2="-50" y2="0" stroke="#FFFFFF" stroke-width="3" />
    <line x1="30" y1="0" x2="50" y2="0" stroke="#FFFFFF" stroke-width="3" />
  </g>

  <!-- Alphabeta Logo -->
  <g transform="translate(400, 50)" text-anchor="middle" filter="url(#glowSlide4)">
    <text x="0" y="15" font-family="Arial" font-size="30" fill="#FF6347" font-weight="bold">αβ</text>
  </g>

  <!-- Text: Collaboration and Innovation -->
  <g transform="translate(100, 430)">
    <text x="0" y="0" font-family="Arial, sans-serif" font-size="22" fill="#FFFFFF">
      Having laid a strong foundation, Alpha and Beta learn:
    </text>
    <text x="0" y="30" font-family="Arial, sans-serif" font-size="22" fill="#FFFFFF">
      **Collaboration** fuels great innovations.
    </text>
    <text x="0" y="70" font-family="Arial, sans-serif" font-size="18" fill="#FFD700">
      Working with diverse perspectives, they see problems
    </text>
    <text x="0" y="100" font-family="Arial, sans-serif" font-size="18" fill="#FFD700">
      in new ways—and light the spark of creativity together.
    </text>
  </g>
</svg>
