<svg
    xmlns="http://www.w3.org/2000/svg"
    width="800"
    height="800"
    viewBox="0 0 800 800"
>
  <!-- ***************  DEFINITIONS *************** -->
  <defs>
    <!-- Body Gradient -->
    <linearGradient id="alphaBodyGradient" x1="0" y1="0" x2="1" y2="1">
      <stop offset="0%" stop-color="#FFD700" />
      <stop offset="100%" stop-color="#FFA500" />
    </linearGradient>

    <!-- Eye Shine -->
    <radialGradient id="eyeShine" cx="50%" cy="50%" r="50%">
      <stop offset="0%" stop-color="#FFFFFF" />
      <stop offset="100%" stop-color="#CCCCCC" />
    </radialGradient>
  </defs>

  <!-- ***************  ALPHA (α) CHARACTER *************** -->
  <!-- Body (Letter α Base Shape) -->
  <path
    d="M400,300 Q500,300 550,350 Q600,400 550,500 Q500,600 400,500 Q350,400 400,300 M380,400 Q440,450 500,400 Q460,370 400,400 Q380,420 380,400"
    fill="url(#alphaBodyGradient)"
    stroke="#DAA520"
    stroke-width="10"
  />

  <!-- Eyes -->
  <circle cx="380" cy="360" r="20" fill="#FFFFFF" />
  <circle cx="420" cy="360" r="20" fill="#FFFFFF" />
  <circle cx="380" cy="360" r="10" fill="#000000" />
  <circle cx="420" cy="360" r="10" fill="#000000" />
  <circle cx="375" cy="355" r="5" fill="url(#eyeShine)" />
  <circle cx="415" cy="355" r="5" fill="url(#eyeShine)" />

  <!-- Mouth -->
  <path
    d="M380,400 Q400,420 420,400"
    stroke="#8B0000"
    stroke-width="3"
    fill="none"
  />

  <!-- Arms -->
  <ellipse
    cx="320"
    cy="450"
    rx="30"
    ry="60"
    fill="url(#alphaBodyGradient)"
    transform="rotate(-30,320,450)"
  />
  <ellipse
    cx="480"
    cy="450"
    rx="30"
    ry="60"
    fill="url(#alphaBodyGradient)"
    transform="rotate(30,480,450)"
  />

  <!-- Legs -->
  <ellipse
    cx="350"
    cy="650"
    rx="40"
    ry="80"
    fill="url(#alphaBodyGradient)"
    transform="rotate(-15,350,650)"
  />
  <ellipse
    cx="450"
    cy="650"
    rx="40"
    ry="80"
    fill="url(#alphaBodyGradient)"
    transform="rotate(15,450,650)"
  />

  <!-- Accessory: Glasses -->
  <ellipse
    cx="380"
    cy="360"
    rx="30"
    ry="15"
    fill="none"
    stroke="#8B4513"
    stroke-width="3"
  />
  <ellipse
    cx="420"
    cy="360"
    rx="30"
    ry="15"
    fill="none"
    stroke="#8B4513"
    stroke-width="3"
  />
  <line x1="410" y1="360" x2="390" y2="360" stroke="#8B4513" stroke-width="3" />

</svg>
