<svg
    xmlns="http://www.w3.org/2000/svg"
    width="800"
    height="800"
    viewBox="0 0 800 800"
>
  <!-- ***************  DEFINITIONS *************** -->
  <defs>
    <!-- Body Gradient -->
    <linearGradient id="gammaBodyGradient" x1="0" y1="0" x2="1" y2="1">
      <stop offset="0%" stop-color="#32CD32" />
      <stop offset="100%" stop-color="#228B22" />
    </linearGradient>

    <!-- Eye Shine -->
    <radialGradient id="eyeShine" cx="50%" cy="50%" r="50%">
      <stop offset="0%" stop-color="#FFFFFF" />
      <stop offset="100%" stop-color="#CCCCCC" />
    </radialGradient>
  </defs>

  <!-- ***************  GAMMA (γ) CHARACTER *************** -->
  <!-- Body (Letter γ Base Shape) -->
  <path
    d="M400,300 Q500,300 550,350 Q600,400 550,500 Q500,600 400,500 Q300,500 300,400 Q300,350 400,300"
    fill="url(#gammaBodyGradient)"
    stroke="#228B22"
    stroke-width="10"
  />

  <!-- Eyes -->
  <circle cx="380" cy="370" r="20" fill="#FFFFFF" />
  <circle cx="420" cy="370" r="20" fill="#FFFFFF" />
  <circle cx="380" cy="370" r="10" fill="#000000" />
  <circle cx="420" cy="370" r="10" fill="#000000" />
  <circle cx="375" cy="365" r="5" fill="url(#eyeShine)" />
  <circle cx="415" cy="365" r="5" fill="url(#eyeShine)" />

  <!-- Mouth -->
  <path
    d="M380,400 Q400,420 420,400"
    stroke="#8B0000"
    stroke-width="3"
    fill="none"
  />

  <!-- Arms -->
  <ellipse
    cx="320"
    cy="450"
    rx="30"
    ry="60"
    fill="url(#gammaBodyGradient)"
    transform="rotate(-30,320,450)"
  />
  <ellipse
    cx="480"
    cy="450"
    rx="30"
    ry="60"
    fill="url(#gammaBodyGradient)"
    transform="rotate(30,480,450)"
  />

  <!-- Legs -->
  <ellipse
    cx="350"
    cy="650"
    rx="40"
    ry="80"
    fill="url(#gammaBodyGradient)"
    transform="rotate(-15,350,650)"
  />
  <ellipse
    cx="450"
    cy="650"
    rx="40"
    ry="80"
    fill="url(#gammaBodyGradient)"
    transform="rotate(15,450,650)"
  />

  <!-- Accessory: Glasses -->
  <ellipse
    cx="380"
    cy="370"
    rx="30"
    ry="15"
    fill="none"
    stroke="#006400"
    stroke-width="3"
  />
  <ellipse
    cx="420"
    cy="370"
    rx="30"
    ry="15"
    fill="none"
    stroke="#006400"
    stroke-width="3"
  />
  <line x1="410" y1="370" x2="390" y2="370" stroke="#006400" stroke-width="3" />
</svg>
