<svg
    xmlns="http://www.w3.org/2000/svg"
    width="800"
    height="800"
    viewBox="0 0 800 800"
>
  <!-- Body Gradient -->
  <defs>
    <linearGradient id="gammaBodyGradient" x1="0" y1="0" x2="1" y2="1">
      <stop offset="0%" stop-color="#32CD32" />
      <stop offset="100%" stop-color="#228B22" />
    </linearGradient>
  </defs>
  <!-- Gamma Body -->
  <path
    d="M400,200 Q550,200 550,300 Q500,400 400,300 Q300,400 500,500 Q550,600 400,600 Q250,600 250,500 Q300,400 400,500 Q450,400 400,200"
    fill="url(#gammaBodyGradient)"
    stroke="#006400"
    stroke-width="10"
  />
  <!-- Eyes -->
  <circle cx="370" cy="280" r="20" fill="#FFFFFF" />
  <circle cx="430" cy="280" r="20" fill="#FFFFFF" />
  <circle cx="370" cy="280" r="10" fill="#000000" />
  <circle cx="430" cy="280" r="10" fill="#000000" />
  <!-- Mouth -->
  <path
    d="M380,320 Q400,340 420,320"
    stroke="#8B0000"
    stroke-width="3"
    fill="none"
  />
  <!-- Accessories: Glasses -->
  <ellipse
    cx="370"
    cy="280"
    rx="30"
    ry="15"
    fill="none"
    stroke="#006400"
    stroke-width="3"
  />
  <ellipse
    cx="430"
    cy="280"
    rx="30"
    ry="15"
    fill="none"
    stroke="#006400"
    stroke-width="3"
  />
  <line x1="410" y1="280" x2="390" y2="280" stroke="#006400" stroke-width="3" />
</svg>
